# xmcd
#
# Track frame offsets: 
#        151
#        8847
#        17866
#        25103
#        32850
#        40606
#        60620
#        68859
#        73784
#        81036
#        87912
#        95189
#        102406
#        113135
#        123868
#        132312
#        140179
#        150395
#        161664
#        170307
#        182911
#        188457
#        195850
#
# Disc length: 2732 seconds
#
# Revision: 0
# Processed by: cddbd v1.5.2PL0 Copyright (c) Steve Scherf et al.
# Submitted via: ExactAudioCopy v0.99pb3
#
DISCID=300aaa17
DTITLE=Various Artist - Precious Memories Real Bluegrass Gospel Disk 1
DYEAR=2007
DGENRE=Bluegrass
TTITLE0=Working on a Building - Red Smiley
TTITLE1=Where The Soul of Man Never Dies - Hylo Brown
TTITLE2=Leaning on the Everlasting Arms - The House Brothers
TTITLE3=Mother's Footsteps - J. D. Jarvis
TTITLE4=Where You Gonna Hide - J. D. Mainer
TTITLE5=Precious Memories - The Marksmen
TTITLE6=Life's Railway To Heaven - Mac Martin
TTITLE7=Let The Church Roll On - The House Brothers
TTITLE8=Come and Dine - Jim Greer
TTITLE9=Scarlet Purple Robe - J. D. Jarvis
TTITLE10=The Gospel Way - J. E. Mainer
TTITLE11=When Our Lord Shall Come Again - Red Smiley
TTITLE12=Take My Hand Precious Lord - Hylo Brown
TTITLE13=The Old Gospel Ship - Josh Crowe
TTITLE14=You Go To Your Church - Jim Greer
TTITLE15=I'm On My Way To Canaan Land - The House Brothers
TTITLE16=Do Lord - J. D. Jarvis
TTITLE17=An Unfriendly World - J. E. Mainer
TTITLE18=This World Can't Stand Long - Mac Martin
TTITLE19=What Would You Give In Exchange - Red White
TTITLE20=Keep On The Sunny Side - Lee Moore
TTITLE21=Springtime in Heaven - J. D. Jarvis
TTITLE22=I'm Getting Ready To Go - Earl Taylor and Jim McCall
EXTD=
EXTT0=
EXTT1=
EXTT2=
EXTT3=
EXTT4=
EXTT5=
EXTT6=
EXTT7=
EXTT8=
EXTT9=
EXTT10=
EXTT11=
EXTT12=
EXTT13=
EXTT14=
EXTT15=
EXTT16=
EXTT17=
EXTT18=
EXTT19=
EXTT20=
EXTT21=
EXTT22=
PLAYORDER=
